<?xml version="1.0" encoding="UTF-8"?>
<svg width="4096" height="4096" viewBox="0 0 4096 4096" xmlns="http://www.w3.org/2000/svg" xmlns:xlink="http://www.w3.org/1999/xlink">
    <g id="Gruppo">
        <path id="Percorso" fill="#5865f2" stroke="none" d="M 3479.70166 749.608154 C 3214.560059 625.554932 2931.058594 535.398438 2634.665039 484.0625 C 2598.264404 549.873535 2555.738037 638.390625 2526.41748 708.805664 C 2211.344238 661.422119 1899.167603 661.422119 1589.888306 708.805664 C 1560.573486 638.390625 1517.081299 549.873535 1480.355103 484.0625 C 1183.641724 535.398438 899.814331 625.88623 634.672974 750.264893 C 99.880363 1558.406738 -45.093105 2346.475586 27.393774 3123.354004 C 382.096344 3388.237061 725.845886 3549.145752 1063.794067 3654.439697 C 1147.235474 3539.600586 1221.653809 3417.523926 1285.763428 3288.866699 C 1163.664307 3242.47168 1046.719604 3185.217773 936.220581 3118.75 C 965.5354 3097.031982 994.210083 3074.325684 1021.913452 3050.962891 C 1695.878662 3366.193604 2428.158936 3366.193604 3094.072266 3050.962891 C 3122.101318 3074.325684 3150.770752 3097.031982 3179.765137 3118.75 C 3068.940674 3185.543457 2951.675781 3242.797363 2829.57666 3289.197998 C 2893.686279 3417.523926 2967.784668 3539.931885 3051.546143 3654.765381 C 3389.819824 3549.47168 3733.888672 3388.568359 4088.591064 3123.354004 C 4173.644043 2222.753662 3943.297607 1441.922607 3479.70166 749.608154 Z M 1377.582031 2645.580811 C 1175.264404 2645.580811 1009.347534 2456.705078 1009.347534 2226.701172 C 1009.347534 1996.697021 1171.721558 1807.495605 1377.582031 1807.495605 C 1583.44812 1807.495605 1749.359375 1996.365723 1745.816406 2226.701172 C 1746.136475 2456.705078 1583.44812 2645.580811 1377.582031 2645.580811 Z M 2738.403809 2645.580811 C 2536.086426 2645.580811 2370.169434 2456.705078 2370.169434 2226.701172 C 2370.169434 1996.697021 2532.537842 1807.495605 2738.403809 1807.495605 C 2944.264404 1807.495605 3110.181396 1996.365723 3106.638184 2226.701172 C 3106.638184 2456.705078 2944.264404 2645.580811 2738.403809 2645.580811 Z"/>
    </g>
</svg>
