<?xml version="1.0" encoding="UTF-8"?>
<svg width="4096" height="4096" viewBox="0 0 4096 4096" xmlns="http://www.w3.org/2000/svg" xmlns:xlink="http://www.w3.org/1999/xlink">
    <path id="Percorso" fill="#1b1f23" fill-rule="evenodd" stroke="none" d="M 2048.034668 0.10376 C 916.514587 0.027344 -0.0289 939.626709 -0.107307 2099.76709 C -0.170105 3028.929443 586.016846 3813.77002 1400.078003 4092.048828 C 1502.476807 4110.428711 1540.881104 4047.4375 1540.884766 3992.317627 C 1540.888184 3942.44751 1538.339355 3777.087891 1538.351318 3601.229492 C 1023.784668 3698.310547 890.679932 3472.572754 849.727905 3354.456055 C 826.691956 3294.085449 726.864563 3107.721191 639.827942 3057.844727 C 568.150635 3018.46875 465.757172 2921.346191 637.277344 2918.73291 C 798.557495 2916.119141 913.747009 3070.987305 952.142822 3133.983887 C 1136.441406 3451.591309 1430.847412 3362.369873 1548.611084 3307.258057 C 1566.540283 3170.771973 1620.306519 3078.90918 1679.190063 3026.417969 C 1223.513672 2973.892334 747.365906 2792.752441 747.420166 1989.578125 C 747.435608 1761.224609 826.80835 1572.247803 957.378296 1425.270752 C 936.901855 1372.773926 865.236389 1157.539551 977.895874 868.824219 C 977.895874 868.824219 1149.419556 813.716309 1541.081299 1084.092285 C 1704.924438 1036.857666 1879.006226 1013.246582 2053.086182 1013.258301 C 2227.166016 1013.270264 2401.244629 1036.904785 2565.081543 1084.161377 C 2956.779785 811.213623 3128.295898 868.969727 3128.295898 868.969727 C 3240.91626 1157.700195 3169.221924 1372.924805 3148.738281 1425.418701 C 3279.28833 1572.413574 3358.635742 1758.776367 3358.620117 1989.754395 C 3358.565674 2795.553223 2879.833496 2974.004395 2424.150146 3026.468506 C 2498.385742 3092.092285 2562.377197 3218.084961 2562.36377 3414.941406 C 2562.344971 3695.789551 2559.769531 3921.518066 2559.764893 3992.386475 C 2559.760986 4047.506348 2598.156494 4113.12793 2700.558105 4092.136719 C 3509.536865 3813.967529 4095.830078 3026.581543 4095.892578 2100.043945 C 4095.971191 939.903564 3179.554688 0.180176 2048.034668 0.10376 Z"/>
</svg>
