<?xml version="1.0" encoding="UTF-8"?>
<svg width="4096" height="4096" viewBox="0 0 4096 4096" xmlns="http://www.w3.org/2000/svg" xmlns:xlink="http://www.w3.org/1999/xlink">
    <g id="Gruppo">
        <path id="Percorso" fill="#4285f4" stroke="none" d="M 4096 2094.54541 C 4096 1949.32373 4082.701172 1809.6875 4058.003906 1675.636475 L 2089.795898 1675.636475 L 2089.795898 2468.770996 L 3214.48584 2468.770996 C 3165.09082 2723.840088 3016.905029 2939.811035 2794.626953 3085.032715 L 2794.626953 3600.756348 L 3472.86084 3600.756348 C 3868.022461 3243.287354 4096 2718.254639 4096 2094.54541 Z"/>
        <path id="path1" fill="#34a853" stroke="none" d="M 2089.795898 4096 C 2654.040771 4096 3127.094482 3913.541992 3472.86084 3600.756348 L 2794.626953 3085.032715 C 2608.445313 3207.912598 2370.968262 3282.385254 2089.795898 3282.385254 C 1546.448975 3282.385254 1084.793945 2923.054688 919.510315 2438.981934 L 224.178131 2438.981934 L 224.178131 2967.738281 C 568.044495 3636.131104 1272.875732 4096 2089.795898 4096 Z"/>
        <path id="path2" fill="#fbbc05" stroke="none" d="M 919.510315 2437.120117 C 877.714172 2314.240234 853.016602 2183.912598 853.016602 2048 C 853.016602 1912.087402 877.714172 1781.76001 919.510315 1658.879883 L 919.510315 1130.123535 L 224.178131 1130.123535 C 81.69194 1405.672852 0 1716.596436 0 2048 C 0 2379.403564 81.69194 2690.327148 224.178131 2965.876465 L 765.625244 2552.552734 L 919.510315 2437.120117 Z"/>
        <path id="path3" fill="#ea4335" stroke="none" d="M 2089.795898 815.476563 C 2397.565918 815.476563 2671.13916 919.738281 2889.617432 1120.814697 L 3488.05957 534.341553 C 3125.194824 202.938232 2654.040771 0 2089.795898 0 C 1272.875732 0 568.044495 459.868896 224.178131 1130.123535 L 919.510376 1658.879883 C 1084.793945 1174.807129 1546.448975 815.476563 2089.795898 815.476563 Z"/>
    </g>
</svg>
