<?xml version="1.0" encoding="UTF-8"?>
<svg width="4096" height="4096" viewBox="0 0 4096 4096" xmlns="http://www.w3.org/2000/svg" xmlns:xlink="http://www.w3.org/1999/xlink">
    <path id="Percorso" fill="#1d9bf0" stroke="none" d="M 3676.665527 1364.059814 C 3679.161621 1400.168701 3679.161621 1436.27832 3679.161621 1472.720459 C 3679.161621 2583.125 2833.836426 3863.759277 1288.122681 3863.759277 L 1288.122681 3863.093994 C 831.513855 3863.759277 384.390015 3732.966797 0 3486.358398 C 66.394638 3494.345703 133.122086 3498.339355 200.015945 3498.505859 C 578.415405 3498.838623 945.998779 3371.873291 1243.692993 3138.077637 C 884.097046 3131.255371 568.764099 2896.793945 458.60556 2554.503906 C 584.572388 2578.798584 714.366394 2573.806396 838.00354 2540.026855 C 445.958954 2460.819092 163.90657 2116.365723 163.90657 1716.33374 L 163.90657 1705.684326 C 280.721222 1770.747803 411.513641 1806.856934 545.301331 1810.850586 C 176.053955 1564.075439 62.23457 1072.855225 285.21405 688.797852 C 711.8703 1213.797852 1341.37146 1532.958252 2017.132446 1566.738037 C 1949.406494 1274.867676 2041.926392 969.019775 2260.246582 763.845459 C 2598.709473 445.683594 3131.031494 461.990967 3449.193115 800.287598 C 3637.394531 763.179688 3817.774902 694.122559 3982.846436 596.277832 C 3920.112549 790.80249 3788.821045 956.040527 3613.432373 1061.040527 C 3780.001709 1041.404785 3942.743408 996.809082 4096 928.750488 C 3983.178955 1097.81543 3841.071289 1245.081787 3676.665527 1364.059814 Z"/>
</svg>
